<svg width="63" height="63" viewBox="0 0 63 63" fill="none" xmlns="http://www.w3.org/2000/svg">
<rect x="9" y="16.9047" width="40" height="40" rx="6" transform="rotate(-25 9 16.9047)" fill="#993212"/>
<rect x="3" y="23.9431" width="40" height="40" rx="6" transform="rotate(-35 3 23.9431)" fill="#B03C18"/>
<rect y="34.2843" width="40" height="40" rx="6" transform="rotate(-45 0 34.2843)" fill="#EA5121"/>
<path d="M27.501 32.202C27.753 30.852 27.645 29.736 27.177 28.854C26.709 27.972 26.043 27.306 25.179 26.856C24.747 26.658 24.27 26.496 23.748 26.37C23.244 26.244 22.722 26.172 22.182 26.154C21.66 26.118 21.138 26.136 20.616 26.208C20.094 26.262 19.617 26.379 19.185 26.559C18.321 26.919 17.583 27.468 16.971 28.206C16.377 28.944 15.972 29.763 15.756 30.663C15.54 31.563 15.549 32.49 15.783 33.444C16.035 34.398 16.575 35.271 17.403 36.063C17.655 36.279 17.934 36.468 18.24 36.63C18.546 36.792 18.879 36.909 19.239 36.981C19.617 37.053 20.022 37.134 20.454 37.224C20.886 37.296 21.282 37.413 21.642 37.575C22.02 37.737 22.344 37.953 22.614 38.223C22.884 38.475 23.046 38.817 23.1 39.249C23.208 39.879 23.082 40.347 22.722 40.653C22.38 40.959 21.966 41.121 21.48 41.139C21.012 41.139 20.562 40.995 20.13 40.707C19.716 40.419 19.491 39.987 19.455 39.411C18.843 39.429 18.159 39.42 17.403 39.384C16.647 39.33 15.954 39.348 15.324 39.438V39.519V39.6C15.27 40.464 15.423 41.238 15.783 41.922C16.143 42.588 16.629 43.155 17.241 43.623C17.853 44.091 18.546 44.46 19.32 44.73C20.112 44.982 20.904 45.117 21.696 45.135C22.254 45.153 22.794 45.108 23.316 45C23.856 44.874 24.351 44.685 24.801 44.433C25.269 44.181 25.683 43.857 26.043 43.461C26.403 43.065 26.691 42.588 26.907 42.03C27.123 41.562 27.276 41.076 27.366 40.572C27.474 40.05 27.51 39.537 27.474 39.033C27.456 38.529 27.366 38.043 27.204 37.575C27.042 37.089 26.799 36.639 26.475 36.225C25.953 35.451 25.278 34.812 24.45 34.308C23.64 33.804 22.758 33.498 21.804 33.39C21.426 33.336 21.075 33.237 20.751 33.093C20.427 32.949 20.193 32.661 20.049 32.229C20.031 32.103 20.013 31.986 19.995 31.878C19.995 31.752 20.013 31.626 20.049 31.5C20.121 30.996 20.355 30.654 20.751 30.474C21.165 30.294 21.588 30.249 22.02 30.339C22.452 30.429 22.821 30.636 23.127 30.96C23.433 31.284 23.532 31.689 23.424 32.175C24.054 32.355 24.729 32.436 25.449 32.418C26.169 32.382 26.844 32.31 27.474 32.202H27.501ZM33.3155 30.366C33.4595 30.222 33.6575 30.123 33.9095 30.069C34.1795 30.015 34.4315 29.97 34.6655 29.934C35.1875 29.916 35.5655 30.024 35.7995 30.258C36.0515 30.492 36.2225 30.798 36.3125 31.176C36.4025 31.536 36.4475 31.932 36.4475 32.364C36.4655 32.796 36.5015 33.183 36.5555 33.525C37.2395 33.651 37.8965 33.741 38.5265 33.795C39.1745 33.831 39.8315 33.777 40.4975 33.633C40.7855 32.805 40.8935 31.995 40.8215 31.203C40.7495 30.411 40.5425 29.682 40.2005 29.016C39.8585 28.332 39.3995 27.729 38.8235 27.207C38.2475 26.685 37.5995 26.271 36.8795 25.965C36.1775 25.641 35.4215 25.452 34.6115 25.398C33.8015 25.344 32.9825 25.452 32.1545 25.722C31.9025 25.794 31.6595 25.884 31.4255 25.992C31.1915 26.082 30.9755 26.199 30.7775 26.343C30.4355 26.649 30.1385 27 29.8865 27.396C29.6525 27.792 29.4545 28.224 29.2925 28.692C29.1845 28.962 29.0945 29.259 29.0225 29.583C28.9685 29.889 28.9595 30.195 28.9955 30.501C28.9775 31.959 28.9595 33.246 28.9415 34.362C28.9415 35.46 28.9415 36.45 28.9415 37.332C28.9595 38.196 28.9775 38.979 28.9955 39.681C29.0135 40.383 29.0405 41.058 29.0765 41.706C29.1485 42.462 29.3825 43.092 29.7785 43.596C30.1925 44.1 30.6965 44.496 31.2905 44.784C31.8845 45.054 32.5235 45.225 33.2075 45.297C33.8915 45.387 34.5575 45.387 35.2055 45.297C36.1955 45.279 37.0775 45.036 37.8515 44.568C38.6435 44.082 39.2825 43.47 39.7685 42.732C40.2545 41.994 40.5695 41.166 40.7135 40.248C40.8575 39.312 40.7765 38.376 40.4705 37.44C40.2185 37.368 39.9305 37.323 39.6065 37.305C39.3005 37.287 38.9855 37.278 38.6615 37.278C38.3375 37.278 38.0135 37.287 37.6895 37.305C37.3835 37.323 37.1045 37.314 36.8525 37.278C36.7625 37.728 36.7265 38.187 36.7445 38.655C36.7805 39.105 36.6995 39.537 36.5015 39.951C36.3215 40.311 36.0515 40.572 35.6915 40.734C35.3495 40.878 34.9805 40.932 34.5845 40.896C34.0625 40.752 33.6845 40.437 33.4505 39.951C33.2345 39.447 33.0995 38.934 33.0455 38.412C32.9915 37.782 32.9645 37.044 32.9645 36.198C32.9645 35.334 32.9735 34.506 32.9915 33.714C33.0095 32.922 33.0275 32.238 33.0455 31.662C33.0815 31.086 33.1175 30.771 33.1535 30.717C33.1715 30.681 33.1895 30.627 33.2075 30.555C33.2435 30.465 33.2795 30.402 33.3155 30.366Z" fill="white"/>
<path d="M17.492 23.504C17.492 23.6 17.492 23.716 17.492 23.852C17.492 23.988 17.492 24.12 17.492 24.248C17.5 24.376 17.504 24.488 17.504 24.584C17.512 24.688 17.516 24.752 17.516 24.776C17.524 24.776 17.684 24.776 17.996 24.776C18.308 24.776 18.7 24.776 19.172 24.776C19.644 24.784 20.156 24.788 20.708 24.788C21.268 24.796 21.796 24.8 22.292 24.8C22.796 24.8 23.228 24.8 23.588 24.8C23.956 24.8 24.188 24.8 24.284 24.8C24.284 24.632 24.28 24.496 24.272 24.392C24.272 24.296 24.272 24.204 24.272 24.116C24.272 24.028 24.276 23.932 24.284 23.828C24.292 23.732 24.308 23.604 24.332 23.444H24.32C24.288 23.444 24.168 23.444 23.96 23.444C23.752 23.444 23.488 23.444 23.168 23.444C22.856 23.444 22.504 23.444 22.112 23.444C21.72 23.452 21.316 23.456 20.9 23.456C20.492 23.464 20.092 23.468 19.7 23.468C19.308 23.476 18.952 23.48 18.632 23.48C18.32 23.488 18.06 23.492 17.852 23.492C17.644 23.5 17.524 23.504 17.492 23.504ZM25.2967 23.504C25.2967 23.6 25.2967 23.716 25.2967 23.852C25.2967 23.988 25.2967 24.12 25.2967 24.248C25.3047 24.376 25.3087 24.488 25.3087 24.584C25.3167 24.688 25.3207 24.752 25.3207 24.776C25.3287 24.776 25.4887 24.776 25.8007 24.776C26.1127 24.776 26.5047 24.776 26.9767 24.776C27.4487 24.784 27.9607 24.788 28.5127 24.788C29.0727 24.796 29.6007 24.8 30.0967 24.8C30.6007 24.8 31.0327 24.8 31.3927 24.8C31.7607 24.8 31.9927 24.8 32.0887 24.8C32.0887 24.632 32.0847 24.496 32.0767 24.392C32.0767 24.296 32.0767 24.204 32.0767 24.116C32.0767 24.028 32.0807 23.932 32.0887 23.828C32.0967 23.732 32.1127 23.604 32.1367 23.444H32.1247C32.0927 23.444 31.9727 23.444 31.7647 23.444C31.5567 23.444 31.2927 23.444 30.9727 23.444C30.6607 23.444 30.3087 23.444 29.9167 23.444C29.5247 23.452 29.1207 23.456 28.7047 23.456C28.2967 23.464 27.8967 23.468 27.5047 23.468C27.1127 23.476 26.7567 23.48 26.4367 23.48C26.1247 23.488 25.8647 23.492 25.6567 23.492C25.4487 23.5 25.3287 23.504 25.2967 23.504ZM33.1014 23.504C33.1014 23.6 33.1014 23.716 33.1014 23.852C33.1014 23.988 33.1014 24.12 33.1014 24.248C33.1094 24.376 33.1134 24.488 33.1134 24.584C33.1214 24.688 33.1254 24.752 33.1254 24.776C33.1334 24.776 33.2934 24.776 33.6054 24.776C33.9174 24.776 34.3094 24.776 34.7814 24.776C35.2534 24.784 35.7654 24.788 36.3174 24.788C36.8774 24.796 37.4054 24.8 37.9014 24.8C38.4054 24.8 38.8374 24.8 39.1974 24.8C39.5654 24.8 39.7974 24.8 39.8934 24.8C39.8934 24.632 39.8894 24.496 39.8814 24.392C39.8814 24.296 39.8814 24.204 39.8814 24.116C39.8814 24.028 39.8854 23.932 39.8934 23.828C39.9014 23.732 39.9174 23.604 39.9414 23.444H39.9294C39.8974 23.444 39.7774 23.444 39.5694 23.444C39.3614 23.444 39.0974 23.444 38.7774 23.444C38.4654 23.444 38.1134 23.444 37.7214 23.444C37.3294 23.452 36.9254 23.456 36.5094 23.456C36.1014 23.464 35.7014 23.468 35.3094 23.468C34.9174 23.476 34.5614 23.48 34.2414 23.48C33.9294 23.488 33.6694 23.492 33.4614 23.492C33.2534 23.5 33.1334 23.504 33.1014 23.504Z" fill="white"/>
<path d="M17.492 46.504C17.492 46.6 17.492 46.716 17.492 46.852C17.492 46.988 17.492 47.12 17.492 47.248C17.5 47.376 17.504 47.488 17.504 47.584C17.512 47.688 17.516 47.752 17.516 47.776C17.524 47.776 17.684 47.776 17.996 47.776C18.308 47.776 18.7 47.776 19.172 47.776C19.644 47.784 20.156 47.788 20.708 47.788C21.268 47.796 21.796 47.8 22.292 47.8C22.796 47.8 23.228 47.8 23.588 47.8C23.956 47.8 24.188 47.8 24.284 47.8C24.284 47.632 24.28 47.496 24.272 47.392C24.272 47.296 24.272 47.204 24.272 47.116C24.272 47.028 24.276 46.932 24.284 46.828C24.292 46.732 24.308 46.604 24.332 46.444H24.32C24.288 46.444 24.168 46.444 23.96 46.444C23.752 46.444 23.488 46.444 23.168 46.444C22.856 46.444 22.504 46.444 22.112 46.444C21.72 46.452 21.316 46.456 20.9 46.456C20.492 46.464 20.092 46.468 19.7 46.468C19.308 46.476 18.952 46.48 18.632 46.48C18.32 46.488 18.06 46.492 17.852 46.492C17.644 46.5 17.524 46.504 17.492 46.504ZM25.2967 46.504C25.2967 46.6 25.2967 46.716 25.2967 46.852C25.2967 46.988 25.2967 47.12 25.2967 47.248C25.3047 47.376 25.3087 47.488 25.3087 47.584C25.3167 47.688 25.3207 47.752 25.3207 47.776C25.3287 47.776 25.4887 47.776 25.8007 47.776C26.1127 47.776 26.5047 47.776 26.9767 47.776C27.4487 47.784 27.9607 47.788 28.5127 47.788C29.0727 47.796 29.6007 47.8 30.0967 47.8C30.6007 47.8 31.0327 47.8 31.3927 47.8C31.7607 47.8 31.9927 47.8 32.0887 47.8C32.0887 47.632 32.0847 47.496 32.0767 47.392C32.0767 47.296 32.0767 47.204 32.0767 47.116C32.0767 47.028 32.0807 46.932 32.0887 46.828C32.0967 46.732 32.1127 46.604 32.1367 46.444H32.1247C32.0927 46.444 31.9727 46.444 31.7647 46.444C31.5567 46.444 31.2927 46.444 30.9727 46.444C30.6607 46.444 30.3087 46.444 29.9167 46.444C29.5247 46.452 29.1207 46.456 28.7047 46.456C28.2967 46.464 27.8967 46.468 27.5047 46.468C27.1127 46.476 26.7567 46.48 26.4367 46.48C26.1247 46.488 25.8647 46.492 25.6567 46.492C25.4487 46.5 25.3287 46.504 25.2967 46.504ZM33.1014 46.504C33.1014 46.6 33.1014 46.716 33.1014 46.852C33.1014 46.988 33.1014 47.12 33.1014 47.248C33.1094 47.376 33.1134 47.488 33.1134 47.584C33.1214 47.688 33.1254 47.752 33.1254 47.776C33.1334 47.776 33.2934 47.776 33.6054 47.776C33.9174 47.776 34.3094 47.776 34.7814 47.776C35.2534 47.784 35.7654 47.788 36.3174 47.788C36.8774 47.796 37.4054 47.8 37.9014 47.8C38.4054 47.8 38.8374 47.8 39.1974 47.8C39.5654 47.8 39.7974 47.8 39.8934 47.8C39.8934 47.632 39.8894 47.496 39.8814 47.392C39.8814 47.296 39.8814 47.204 39.8814 47.116C39.8814 47.028 39.8854 46.932 39.8934 46.828C39.9014 46.732 39.9174 46.604 39.9414 46.444H39.9294C39.8974 46.444 39.7774 46.444 39.5694 46.444C39.3614 46.444 39.0974 46.444 38.7774 46.444C38.4654 46.444 38.1134 46.444 37.7214 46.444C37.3294 46.452 36.9254 46.456 36.5094 46.456C36.1014 46.464 35.7014 46.468 35.3094 46.468C34.9174 46.476 34.5614 46.48 34.2414 46.48C33.9294 46.488 33.6694 46.492 33.4614 46.492C33.2534 46.5 33.1334 46.504 33.1014 46.504Z" fill="white"/>
</svg>
